<?xml version="1.0" ?><svg viewBox="0 0 64 64" xmlns="http://www.w3.org/2000/svg"><g id="outling-cut"><path d="M55.54,3.129,53.974,4.8l-.015-.09A2.987,2.987,0,0,0,51.008,2.2a2.916,2.916,0,0,0-.5.043A3,3,0,0,0,48.041,5.7l.747,4.479L46,12.961V10.2a3,3,0,1,0-6,0v5.45L32.593,10.2a1,1,0,0,0-1.186,0l-3,2.211a1,1,0,1,0,1.186,1.61L32,12.242l8,5.9v.522L34.622,22.5a7.263,7.263,0,0,0-5.242,0L24,18.658v-.521l3.2-2.358a1,1,0,1,0-1.186-1.609L24,15.653V10.2a3,3,0,0,0-6,0V12.96l-2.788-2.787.747-4.479a3,3,0,0,0-5.918-.986l-.015.092L8.414,3.08a3.072,3.072,0,0,0-4.242,0,3,3,0,0,0-.035,4.207l5.742,6.035,1.7,1.7a1,1,0,0,0,1.414-1.414l-1.683-1.682L5.568,5.891a1,1,0,0,1,.018-1.4,1.032,1.032,0,0,1,1.391-.023L11.333,9.12l.681-4.083a.994.994,0,0,1,.978-.838,1.013,1.013,0,0,1,.183.018,1,1,0,0,1,.811,1.149l-.915,5.492L20,17.788V10.2a1,1,0,0,1,2,0v9.487l6.5,4.64a.936.936,0,0,0,.161.141.975.975,0,0,1,.328.567.987.987,0,0,1-.172.745,1.023,1.023,0,0,1-1.4.233L24.88,24.2H19a1,1,0,0,1,0-2h2.585l-5.276-5.276A1,1,0,1,0,14.9,18.339l2.316,2.316-4.8,3.54A1,1,0,0,0,12,25,44.587,44.587,0,0,0,31.425,61.818a.978.978,0,0,0,.568.176,1.04,1.04,0,0,0,.59-.182A44.563,44.563,0,0,0,50.849,35H51a1,1,0,0,0,1-1,.986.986,0,0,0-.734-.946c.064-.349.107-.7.162-1.054H52a1,1,0,0,0,0-2h-.292A44.619,44.619,0,0,0,52,25a1,1,0,0,0-.407-.8l-4.8-3.54,7.367-7.366,5.672-5.965a3,3,0,0,0,0-4.242A3.055,3.055,0,0,0,55.54,3.129ZM23,31.1V31.9A5.029,5.029,0,0,1,20,30h3ZM49.693,30H49a1,1,0,0,0,0,2h.4c-.055.333-.1.669-.162,1H48a1,1,0,0,0,0,2h.8A42.6,42.6,0,0,1,32,59.781,42.578,42.578,0,0,1,14,25.5l2.1-1.55A3,3,0,0,0,19,26.2h4.009c0,.022-.009.042-.009.065V28H18a1,1,0,0,0-.8,1.6l1.2,1.6a7.037,7.037,0,0,0,4.776,2.751,25.587,25.587,0,0,0,6.3,14.181,3.378,3.378,0,0,0,5.051,0,25.641,25.641,0,0,0,3.829-5.687,1,1,0,1,0-1.794-.884A23.641,23.641,0,0,1,33.03,46.8a1.411,1.411,0,0,1-2.061,0,23.58,23.58,0,0,1-5.746-12.635L31,38.5V41a1,1,0,0,0,2,0V38a1,1,0,0,0-.4-.8l-7.581-5.686c0-.138-.019-.273-.019-.411V26.884l.115-.058,1.138.814a3,3,0,0,0,4.706-2.934,3.046,3.046,0,0,0-.153-.566,5.262,5.262,0,0,1,2.388,0,3.088,3.088,0,0,0-.153.568,3,3,0,0,0,4.7,2.936l1.144-.817.113.057V31.1a23.59,23.59,0,0,1-.956,6.653A1,1,0,0,0,38.722,39a1.022,1.022,0,0,0,.282.04,1,1,0,0,0,.959-.719,25.5,25.5,0,0,0,.862-4.368A7.045,7.045,0,0,0,45.6,31.2l1.2-1.6A1,1,0,0,0,46,28H41V26.266c0-.022-.007-.042-.009-.063H45a3,3,0,0,0,2.894-2.25L50,25.5A42.478,42.478,0,0,1,49.693,30ZM41,31.1V30h3a5.029,5.029,0,0,1-3,1.9ZM58.4,5.928l-5.671,5.965L42.414,22.2H45a1,1,0,0,1,0,2H39.12l-2.541,1.815a1.029,1.029,0,0,1-1.393-.234.99.99,0,0,1-.172-.746.968.968,0,0,1,.29-.528.993.993,0,0,0,.237-.208L42,19.688V10.2a1,1,0,0,1,2,0v7.586l6.929-6.928-.915-5.5a.992.992,0,0,1,.172-.744,1,1,0,0,1,1.8.417l.681,4.084,4.311-4.6A1.006,1.006,0,0,1,58.414,4.5a.985.985,0,0,1,.293.707A1,1,0,0,1,58.4,5.928Z"/><path d="M32.56,54.17a.757.757,0,0,0-.18-.09.636.636,0,0,0-.18-.06,1.037,1.037,0,0,0-.91.27A1.05,1.05,0,0,0,31,55a1,1,0,0,0,.08.38,1.169,1.169,0,0,0,.21.33,1.155,1.155,0,0,0,.33.21.943.943,0,0,0,.76,0,1.155,1.155,0,0,0,.33-.21,1.169,1.169,0,0,0,.21-.33A1,1,0,0,0,33,55a1.05,1.05,0,0,0-.29-.71A1.576,1.576,0,0,0,32.56,54.17Z"/><path d="M44.351,37.063a1.006,1.006,0,0,0-1.288.585l-1.271,3.393a26.774,26.774,0,0,1-4.754,8.045l-2.8,3.264a1,1,0,1,0,1.518,1.3l2.8-3.263a28.787,28.787,0,0,0,5.108-8.644l1.272-3.391A1,1,0,0,0,44.351,37.063Z"/><path d="M26.962,49.086a27.017,27.017,0,0,1-2.6-3.6,1,1,0,0,0-1.712,1.034,29.054,29.054,0,0,0,2.8,3.87l2.8,3.263a1,1,0,1,0,1.518-1.3Z"/><path d="M22.93,43a1,1,0,0,0-.29-.71,1.034,1.034,0,0,0-1.41,0,1.015,1.015,0,0,0-.3.71,1,1,0,0,0,.3.71.988.988,0,0,0,.32.21.852.852,0,0,0,.38.08.9.9,0,0,0,.39-.08.974.974,0,0,0,.61-.92Z"/><path d="M32,28a1,1,0,0,0-1,1v4a1,1,0,0,0,2,0V29A1,1,0,0,0,32,28Z"/></g></svg>